<svg width="1440" height="1080" viewBox="0 0 1440 1080" fill="none" xmlns="http://www.w3.org/2000/svg">
<g clip-path="url(#clip0_2130_159)">
<path d="M836.051 262.559C826.199 266.103 819.396 275.551 819.396 286.181V299.645C819.396 310.275 825.964 319.724 836.051 323.267L1443.83 538.461C1520.53 565.626 1603.57 518.619 1620.69 438.541C1641.1 342.637 1641.1 243.426 1620.69 147.522C1603.57 67.2079 1520.77 20.4369 1443.83 47.6018L836.051 262.796V262.559ZM1104.64 316.417C1094.55 327.991 1078.13 332.007 1063.82 326.102L999.547 299.882C992.51 297.047 992.51 287.126 999.547 284.055L1063.82 257.835C1078.13 251.93 1094.55 255.945 1104.64 267.52C1116.83 281.457 1116.83 302.244 1104.64 315.944V316.417Z" fill="url(#paint0_linear_2130_159)" fill-opacity="0.09"/>
<path d="M1403.48 636.962L823.151 355.155C813.768 350.667 802.274 352.557 795.002 359.879L785.619 369.564C778.113 377.123 776.236 388.462 780.928 398.147L1060.07 984.201C1095.25 1058.14 1186.74 1084.36 1255 1039.71C1336.63 986.563 1406.06 916.407 1458.84 833.967C1502.94 764.992 1477.14 672.631 1403.95 636.962H1403.48ZM1008.23 550.979C1007.06 569.404 992.512 584.049 974.215 585.231C958.733 586.175 944.424 577.199 938.56 563.026L911.584 498.775C908.535 491.689 915.572 484.602 922.609 487.673L986.413 515.074C1000.49 521.216 1009.4 535.625 1008.46 551.215L1008.23 550.979Z" fill="url(#paint1_linear_2130_159)" fill-opacity="0.09"/>
<path d="M749.026 411.138C745.507 401.216 736.124 394.366 725.568 394.366H712.198C701.642 394.366 692.259 400.98 688.741 411.138L475.749 1024.83C448.773 1102.31 495.219 1186.17 574.739 1203.41C669.74 1224.2 768.026 1224.2 863.028 1203.41C942.547 1186.17 988.993 1102.31 962.017 1024.83L749.026 411.138ZM742.223 682.315C728.618 694.598 707.975 694.598 694.136 682.315C682.642 671.921 678.654 655.386 684.518 640.977L710.321 576.253C713.136 569.167 722.988 569.167 725.803 576.253L751.606 640.977C757.47 655.386 753.482 671.921 741.988 682.315H742.223Z" fill="url(#paint2_linear_2130_159)" fill-opacity="0.09"/>
<path d="M688.975 174.685C692.494 184.606 701.876 191.457 712.432 191.457H725.803C736.359 191.457 745.741 184.842 749.26 174.685L962.251 -439.007C989.227 -516.486 942.782 -600.343 863.262 -617.587C768.26 -638.138 669.975 -638.138 574.973 -617.587C495.453 -600.343 449.008 -516.486 475.984 -439.007L688.975 174.685ZM694.136 -97.9093C707.741 -110.193 728.383 -110.193 742.223 -97.9093C753.717 -87.752 757.705 -70.9806 751.84 -56.5713L726.037 8.15212C723.222 15.2386 713.37 15.2386 710.556 8.15212L684.753 -56.5713C678.888 -70.9806 682.876 -87.5158 694.37 -97.9093H694.136Z" fill="url(#paint3_linear_2130_159)" fill-opacity="0.09"/>
<path d="M601.949 323.267C611.801 319.723 618.604 310.275 618.604 299.645V286.18C618.604 275.551 612.036 266.102 601.949 262.559L-5.82692 47.365C-82.532 20.2 -165.57 67.2072 -182.694 147.285C-203.102 243.189 -203.102 342.4 -182.694 438.304C-165.57 518.618 -82.7665 565.389 -5.82692 538.224L601.949 323.03V323.267ZM331.722 267.992C341.809 256.417 358.229 252.401 372.538 258.307L436.576 284.527C443.613 287.362 443.613 297.283 436.576 300.353L372.538 326.574C358.229 332.479 341.809 328.463 331.722 316.889C319.524 302.952 319.524 282.165 331.722 268.464V267.992Z" fill="url(#paint4_linear_2130_159)" fill-opacity="0.09"/>
<path d="M34.5184 -50.9003L614.849 230.907C624.232 235.631 635.726 233.505 642.998 226.182L652.381 216.497C659.887 208.938 661.764 197.6 657.072 187.915L378.166 -398.139C342.98 -472.075 251.497 -498.295 183.237 -453.65C101.606 -400.501 32.1727 -330.345 -20.606 -247.905C-64.7055 -178.93 -38.9026 -86.5691 34.2838 -50.9003H34.5184ZM427.896 33.4292C429.068 15.0043 443.612 0.358819 461.908 -0.822266C477.39 -1.76713 491.699 7.20912 497.563 21.3821L524.539 85.6331C527.589 92.7197 520.551 99.8062 513.514 96.7354L449.711 69.3342C435.636 63.1925 426.723 48.7833 427.661 33.193L427.896 33.4292Z" fill="url(#paint5_linear_2130_159)" fill-opacity="0.09"/>
<path d="M652.614 369.563L643.231 359.878C635.724 352.319 624.465 350.429 615.082 355.154L34.7512 636.961C-38.4353 672.393 -64.2382 764.99 -20.1387 833.966C32.64 916.405 102.073 986.562 183.704 1039.71C251.965 1084.36 343.448 1058.14 378.634 984.2L657.54 398.145C662.231 388.46 660.12 377.122 652.848 369.563H652.614ZM524.772 498.537L497.796 562.788C491.697 577.198 477.388 585.938 462.141 584.993C443.845 583.812 429.301 569.166 428.128 550.741C427.19 535.151 435.869 520.742 450.178 514.6L513.982 487.199C521.019 484.128 527.821 491.215 525.006 498.301L524.772 498.537Z" fill="url(#paint6_linear_2130_159)" fill-opacity="0.09"/>
<path d="M1254.52 -453.65C1186.26 -498.295 1094.78 -472.075 1059.59 -398.139L780.454 187.915C775.997 197.364 777.874 208.939 785.146 216.497L794.529 226.182C802.035 233.741 813.294 235.631 822.677 230.907L1403.01 -50.9003C1476.19 -86.569 1502 -178.93 1457.9 -247.905C1405.12 -330.345 1335.69 -400.501 1254.06 -453.65H1254.52ZM986.409 69.5704L922.605 96.9716C915.568 100.042 908.765 92.956 911.58 85.8695L938.556 21.6184C944.655 7.20913 958.964 -1.53087 974.211 -0.585997C992.507 0.595088 1007.05 15.2405 1008.22 33.6654C1009.16 49.2557 1000.48 63.665 986.174 69.8066L986.409 69.5704Z" fill="url(#paint7_linear_2130_159)" fill-opacity="0.09"/>
<g filter="url(#filter0_f_2130_159)">
<ellipse cx="-17.8604" cy="371.325" rx="140.142" ry="316.945" transform="rotate(33.5412 -17.8604 371.325)" fill="url(#paint8_linear_2130_159)"/>
</g>
<g filter="url(#filter1_f_2130_159)">
<ellipse cx="1455.09" cy="970.401" rx="52.0129" ry="523.893" transform="rotate(-91.5861 1455.09 970.401)" fill="#CFBEFF"/>
</g>
<g filter="url(#filter2_f_2130_159)">
<ellipse cx="274.961" cy="-34.9621" rx="424.687" ry="126.043" transform="rotate(33.2793 274.961 -34.9621)" fill="#0D0A16"/>
</g>
<g filter="url(#filter3_f_2130_159)">
<ellipse cx="1087.68" cy="-261.846" rx="146.245" ry="252.764" transform="rotate(33.5412 1087.68 -261.846)" fill="url(#paint9_linear_2130_159)"/>
</g>
<g opacity="0.71">
<path d="M2060.91 219.984C2055.83 219.984 1249.55 214.497 1249.55 214.497C1249.55 214.497 2055.73 202.374 2060.82 202.374C2065.91 202.374 2070.07 206.268 2070.07 211.135C2070.07 216.002 2066 219.984 2060.91 219.984Z" fill="url(#paint10_linear_2130_159)"/>
<path d="M2642.87 -32.6082C2637.84 -31.9219 1839.09 68.0988 1839.09 68.0988C1839.09 68.0988 2635.3 -49.9494 2640.34 -50.6815C2645.37 -51.3678 2650.03 -47.8904 2650.72 -42.9031C2651.42 -37.9158 2647.91 -33.2945 2642.87 -32.6082Z" fill="url(#paint11_linear_2130_159)"/>
<path d="M2458.13 303.62C2451.62 303.335 1423.33 246.399 1423.33 246.399C1423.33 246.399 2452.64 279.164 2459.15 279.449C2465.66 279.734 2470.7 285.385 2470.42 292.033C2470.14 298.729 2464.65 303.905 2458.18 303.62H2458.13Z" fill="url(#paint12_linear_2130_159)"/>
<path d="M2694.32 57.1147C2684.67 58.0448 1154.96 186.965 1154.96 186.965C1154.96 186.965 2681.34 22.8847 2691 21.9546C2700.65 21.0244 2709.2 28.1402 2710.12 37.8604C2711.05 47.5806 2703.98 56.1845 2694.32 57.1147Z" fill="url(#paint13_linear_2130_159)"/>
<path d="M1688.78 1280.06C1685.41 1276.22 1161.56 664.633 1161.56 664.633C1161.56 664.633 1699.25 1264.11 1702.62 1267.9C1705.99 1271.69 1705.57 1277.56 1701.79 1280.89C1697.96 1284.26 1692.14 1283.85 1688.82 1280.06H1688.78Z" fill="url(#paint14_linear_2130_159)"/>
<path d="M1594.83 1053.99C1591.08 1050.51 1275.95 741.676 1275.95 741.676C1275.95 741.676 1603.59 1036.93 1607.34 1040.4C1611.09 1043.88 1611.33 1049.72 1607.85 1053.48C1604.37 1057.23 1598.54 1057.47 1594.78 1053.99H1594.83Z" fill="url(#paint15_linear_2130_159)"/>
<path d="M1501.64 790.826C1497.34 788.093 1238.85 611.804 1238.85 611.804C1238.85 611.804 1507.14 772.527 1511.43 775.261C1515.73 777.994 1517.02 783.692 1514.29 788C1511.57 792.308 1505.89 793.605 1501.59 790.872L1501.64 790.826Z" fill="url(#paint16_linear_2130_159)"/>
<path d="M1076.67 836.515C1074.6 833.394 1031.51 713.06 1031.51 713.06C1031.51 713.06 1085.79 825.847 1087.82 828.968C1089.9 832.09 1089.07 836.329 1085.98 838.378C1082.89 840.475 1078.7 839.636 1076.67 836.515Z" fill="url(#paint17_linear_2130_159)"/>
<path d="M2350.27 627.107C2346.64 626.415 2065.67 567.779 2065.67 567.779C2065.67 567.779 2349.07 613.175 2352.75 613.867C2356.43 614.559 2358.78 618.065 2358.13 621.71C2357.44 625.354 2353.95 627.753 2350.32 627.107H2350.27Z" fill="url(#paint18_linear_2130_159)"/>
<path d="M1354.82 10.3589C1352.19 12.1142 1146.16 145.142 1146.16 145.142C1146.16 145.142 1345.8 2.64519 1348.39 0.843771C1351.03 -0.911457 1354.59 -0.26472 1356.35 2.36812C1358.11 5.00096 1357.46 8.55762 1354.82 10.3129V10.3589Z" fill="url(#paint19_linear_2130_159)"/>
<path d="M1573.14 -45.6523C1571.25 -44.5141 1423.33 39.4827 1423.33 39.4827C1423.33 39.4827 1567.14 -51.252 1569.03 -52.3902C1570.92 -53.5283 1573.37 -52.9366 1574.53 -51.07C1575.68 -49.2034 1575.08 -46.7905 1573.19 -45.6523H1573.14Z" fill="url(#paint20_linear_2130_159)"/>
<path d="M1250.78 582.665C1248.2 581.37 1115.75 514.949 1115.75 514.949C1115.75 514.949 1252.85 571.98 1255.43 573.229C1258.01 574.524 1259.07 577.67 1257.83 580.26C1256.54 582.85 1253.4 583.914 1250.82 582.665H1250.78Z" fill="url(#paint21_linear_2130_159)"/>
<path d="M1260.52 294.826C1258.34 294.55 1189.37 279.417 1189.37 279.417C1189.37 279.417 1259.27 286.693 1261.44 286.923C1263.62 287.199 1265.19 289.174 1264.91 291.334C1264.64 293.493 1262.65 295.056 1260.47 294.78L1260.52 294.826Z" fill="url(#paint22_linear_2130_159)"/>
<path d="M2592.85 917.227C2587.31 915.382 1711.5 611.804 1711.5 611.804C1711.5 611.804 2594.05 895.272 2599.58 897.117C2605.12 898.962 2608.12 904.958 2606.27 910.539C2604.43 916.12 2598.43 919.071 2592.85 917.227Z" fill="url(#paint23_linear_2130_159)"/>
<path d="M2454.63 748.016C2449.69 746.814 1669.71 545.767 1669.71 545.767C1669.71 545.767 2454.12 728.886 2459.02 730.134C2463.96 731.335 2466.97 736.325 2465.77 741.269C2464.56 746.214 2459.57 749.217 2454.63 748.016Z" fill="url(#paint24_linear_2130_159)"/>
<path d="M2380.05 1347.59C2374.46 1344.27 1493.72 809.915 1493.72 809.915C1493.72 809.915 2386.47 1323.98 2392.06 1327.31C2397.65 1330.63 2399.49 1337.84 2396.21 1343.43C2392.93 1349.03 2385.68 1350.88 2380.09 1347.59H2380.05Z" fill="url(#paint25_linear_2130_159)"/>
<path d="M2644.2 468.636C2637.74 467.849 1616.91 330.046 1616.91 330.046C1616.91 330.046 2640.65 444.426 2647.07 445.213C2653.54 446 2658.11 451.879 2657.32 458.359C2656.54 464.84 2650.67 469.422 2644.2 468.636Z" fill="url(#paint26_linear_2130_159)"/>
<path d="M2339.43 1103.88C2333.52 1101.2 1828.09 853.939 1828.09 853.939C1828.09 853.939 2343.22 1079.72 2349.13 1082.4C2355.04 1085.08 2357.67 1092.06 2354.99 1097.97C2352.31 1103.88 2345.34 1106.51 2339.43 1103.83V1103.88Z" fill="url(#paint27_linear_2130_159)"/>
<path d="M2262.88 527.953C2256.51 526.755 1707.1 404.888 1707.1 404.888C1707.1 404.888 2260.89 503.634 2267.27 504.878C2273.64 506.075 2277.84 512.247 2276.64 518.603C2275.44 524.959 2269.25 529.15 2262.88 527.953Z" fill="url(#paint28_linear_2130_159)"/>
<path d="M1885.76 767.362C1881.05 765.418 1257.83 501.135 1257.83 501.135C1257.83 501.135 1888.11 748.388 1892.82 750.332C1897.53 752.275 1899.74 757.69 1897.76 762.41C1895.77 767.13 1890.42 769.352 1885.71 767.362H1885.76Z" fill="url(#paint29_linear_2130_159)"/>
<path d="M2691.14 1038.21C2686.4 1036.36 1940.28 737.274 1940.28 737.274C1940.28 737.274 2693.03 1019.15 2697.73 1020.96C2702.47 1022.81 2704.82 1028.15 2702.98 1032.92C2701.14 1037.7 2695.84 1040.07 2691.09 1038.21H2691.14Z" fill="url(#paint30_linear_2130_159)"/>
<path d="M1901.97 552.214C1897.59 551.349 1559.72 477.528 1559.72 477.528C1559.72 477.528 1900.77 535.729 1905.16 536.548C1909.54 537.368 1912.4 541.603 1911.53 545.93C1910.65 550.256 1906.4 553.08 1902.02 552.214H1901.97Z" fill="url(#paint31_linear_2130_159)"/>
<path d="M2306.44 132.083C2301.96 132.216 1955.68 136.337 1955.68 136.337C1955.68 136.337 2301.4 116.707 2305.88 116.53C2310.36 116.397 2314.1 119.764 2314.24 124.018C2314.38 128.317 2310.87 131.906 2306.44 132.039V132.083Z" fill="url(#paint32_linear_2130_159)"/>
<path d="M2288.78 761.231C2284.44 760.108 1951.28 666.835 1951.28 666.835C1951.28 666.835 2288.41 744.242 2292.74 745.319C2297.07 746.442 2299.7 750.888 2298.59 755.287C2297.49 759.686 2293.11 762.354 2288.78 761.231Z" fill="url(#paint33_linear_2130_159)"/>
<path d="M2032.01 1077.62C2028.01 1075.65 1722.5 915.574 1722.5 915.574C1722.5 915.574 2035.19 1061.21 2039.19 1063.19C2043.19 1065.17 2044.8 1069.99 2042.83 1073.99C2040.85 1077.99 2036.02 1079.6 2032.01 1077.62Z" fill="url(#paint34_linear_2130_159)"/>
<path d="M1934.8 714.904C1931.86 713.809 1704.9 625.011 1704.9 625.011C1704.9 625.011 1935.82 703.223 1938.76 704.318C1941.71 705.413 1943.22 708.653 1942.12 711.573C1941.02 714.493 1937.75 715.999 1934.8 714.904Z" fill="url(#paint35_linear_2130_159)"/>
<path d="M2013.02 422.448C2009.89 422.037 1768.7 385.077 1768.7 385.077C1768.7 385.077 2011.41 410.812 2014.5 411.223C2017.63 411.633 2019.84 414.463 2019.42 417.565C2019.01 420.668 2016.16 422.859 2013.02 422.448Z" fill="url(#paint36_linear_2130_159)"/>
<path d="M2138.1 -24.0821C2135 -23.4393 1894.09 21.8728 1894.09 21.8728C1894.09 21.8728 2132.64 -34.5493 2135.74 -35.2379C2138.84 -35.8806 2141.89 -33.9066 2142.54 -30.8307C2143.19 -27.7548 2141.2 -24.7248 2138.1 -24.0821Z" fill="url(#paint37_linear_2130_159)"/>
<path d="M-907.453 1327.66C-902.557 1324.47 -129.717 809.915 -129.717 809.915C-129.717 809.915 -914.057 1306.67 -918.999 1309.86C-923.895 1313.05 -925.327 1319.61 -922.14 1324.56C-918.953 1329.46 -912.395 1330.89 -907.453 1327.7V1327.66Z" fill="url(#paint38_linear_2130_159)"/>
<path d="M-813.5 1127.99C-809.026 1125.59 -105.52 735.073 -105.52 735.073C-105.52 735.073 -817.743 1109.36 -822.216 1111.76C-826.69 1114.17 -828.35 1119.76 -825.952 1124.25C-823.554 1128.73 -817.973 1130.4 -813.5 1127.99Z" fill="url(#paint39_linear_2130_159)"/>
<path d="M-90.4342 1641.59C-87.9828 1637.15 292.642 926.58 292.642 926.58C292.642 926.58 -104.125 1628.28 -106.577 1632.71C-109.028 1637.15 -107.409 1642.79 -102.923 1645.24C-98.4362 1647.69 -92.8394 1646.07 -90.388 1641.59H-90.4342Z" fill="url(#paint40_linear_2130_159)"/>
<path d="M-70.911 1435.21C-68.178 1430.93 358.635 748.28 358.635 748.28C358.635 748.28 -83.7423 1421.06 -86.4753 1425.34C-89.2083 1429.63 -87.9578 1435.31 -83.6498 1438.03C-79.3418 1440.75 -73.644 1439.5 -70.911 1435.21Z" fill="url(#paint41_linear_2130_159)"/>
<path d="M-818.713 519.056C-813.277 517.624 41.866 279.417 41.866 279.417C41.866 279.417 -818.483 497.951 -823.92 499.382C-829.357 500.814 -832.536 506.402 -831.108 511.805C-829.679 517.255 -824.104 520.441 -818.713 519.01V519.056Z" fill="url(#paint42_linear_2130_159)"/>
<path d="M-1068.27 905.914C-1062.21 903.515 -107.719 514.949 -107.719 514.949C-107.719 514.949 -1070.9 881.643 -1076.96 884.043C-1083.01 886.442 -1085.97 893.271 -1083.61 899.316C-1081.21 905.361 -1074.37 908.314 -1068.31 905.96L-1068.27 905.914Z" fill="url(#paint43_linear_2130_159)"/>
<path d="M-23.4295 731.594C-19.0983 728.957 292.642 514.949 292.642 514.949C292.642 514.949 -28.5439 713.181 -32.8751 715.772C-37.2063 718.363 -38.6348 724.053 -36.0084 728.402C-33.382 732.751 -27.7607 734.185 -23.4295 731.548V731.594Z" fill="url(#paint44_linear_2130_159)"/>
<path d="M-684.847 868.173C-678.985 865.404 -178.113 609.602 -178.113 609.602C-178.113 609.602 -689.001 844.083 -694.909 846.898C-700.771 849.667 -703.309 856.682 -700.54 862.589C-697.771 868.496 -690.755 870.988 -684.847 868.219V868.173Z" fill="url(#paint45_linear_2130_159)"/>
<path d="M-5.41295 1233.29C-2.37322 1229.21 250.846 869.348 250.846 869.348C250.846 869.348 -16.9731 1218.1 -20.0588 1222.18C-23.1446 1226.25 -22.3158 1232.04 -18.2628 1235.1C-14.2098 1238.15 -8.45268 1237.36 -5.41295 1233.29Z" fill="url(#paint46_linear_2130_159)"/>
<path d="M-260.11 1003.92C-256.044 1000.86 228.848 625.011 228.848 625.011C228.848 625.011 -267.18 986.135 -271.246 989.237C-275.312 992.34 -276.098 998.083 -273.048 1002.16C-269.998 1006.23 -264.223 1007.02 -260.156 1003.97L-260.11 1003.92Z" fill="url(#paint47_linear_2130_159)"/>
<path d="M-890.72 1090.75C-886.201 1088.49 -171.513 719.664 -171.513 719.664C-171.513 719.664 -894.408 1072 -898.973 1074.26C-903.492 1076.52 -905.336 1082.07 -903.077 1086.59C-900.817 1091.12 -895.284 1092.97 -890.766 1090.71L-890.72 1090.75Z" fill="url(#paint48_linear_2130_159)"/>
<path d="M-122.979 639.786C-118.918 637.933 129.734 514.949 129.734 514.949C129.734 514.949 -125.656 623.158 -129.717 625.011C-133.779 626.864 -135.578 631.68 -133.686 635.756C-131.84 639.832 -127.041 641.638 -122.979 639.739V639.786Z" fill="url(#paint49_linear_2130_159)"/>
<path d="M-1112.02 512.571C-1107.63 511.65 -415.689 356.46 -415.689 356.46C-415.689 356.46 -1111.01 495.855 -1115.4 496.776C-1119.79 497.697 -1122.57 501.98 -1121.64 506.354C-1120.72 510.729 -1116.42 513.492 -1112.02 512.571Z" fill="url(#paint50_linear_2130_159)"/>
<path d="M-1121.15 1152.5C-1117.14 1150.55 -483.883 831.927 -483.883 831.927C-483.883 831.927 -1124.25 1135.91 -1128.27 1137.9C-1132.29 1139.85 -1133.95 1144.71 -1132.01 1148.74C-1130.07 1152.77 -1125.22 1154.44 -1121.2 1152.5H-1121.15Z" fill="url(#paint51_linear_2130_159)"/>
<path d="M-329.274 800.317C-325.266 798.395 -17.5283 642.621 -17.5283 642.621C-17.5283 642.621 -332.314 783.939 -336.321 785.86C-340.329 787.782 -342.033 792.585 -340.098 796.565C-338.164 800.546 -333.327 802.238 -329.32 800.317H-329.274Z" fill="url(#paint52_linear_2130_159)"/>
<path d="M-981.066 681.68C-976.841 680.111 -653.266 552.37 -653.266 552.37C-653.266 552.37 -982.552 664.974 -986.731 666.543C-990.956 668.112 -993.092 672.773 -991.513 676.973C-989.935 681.173 -985.245 683.295 -981.02 681.726L-981.066 681.68Z" fill="url(#paint53_linear_2130_159)"/>
<path d="M25.1304 320.97C28.1263 320.004 259.645 241.996 259.645 241.996C259.645 241.996 24.7155 309.156 21.6734 310.121C18.6774 311.086 16.972 314.258 17.9399 317.246C18.9079 320.234 22.0881 321.935 25.0841 320.97H25.1304Z" fill="url(#paint54_linear_2130_159)"/>
<path d="M-1019.29 1029.64C-1016.36 1028.46 -789.653 933.184 -789.653 933.184C-789.653 933.184 -1020.69 1017.97 -1023.62 1019.15C-1026.55 1020.34 -1027.99 1023.62 -1026.83 1026.5C-1025.66 1029.37 -1022.27 1030.78 -1019.34 1029.64H-1019.29Z" fill="url(#paint55_linear_2130_159)"/>
<path d="M-1018.51 1332.9C-1015.84 1331.24 -811.651 1197.33 -811.651 1197.33C-811.651 1197.33 -1021.87 1321.54 -1024.54 1323.2C-1027.2 1324.86 -1028.03 1328.42 -1026.38 1331.1C-1024.72 1333.78 -1021.18 1334.61 -1018.51 1332.95V1332.9Z" fill="url(#paint56_linear_2130_159)"/>
<path d="M-320.863 967.379C-318.257 965.572 -118.718 820.921 -118.718 820.921C-118.718 820.921 -324.819 956.117 -327.426 957.924C-330.032 959.732 -330.684 963.301 -328.869 965.942C-327.054 968.538 -323.47 969.187 -320.817 967.379H-320.863Z" fill="url(#paint57_linear_2130_159)"/>
<path d="M163.064 914.314C164.582 912.729 279.443 785.701 279.443 785.701C279.443 785.701 158.878 907.135 157.36 908.767C155.842 910.352 155.888 912.916 157.498 914.454C159.062 915.993 161.592 915.946 163.11 914.314H163.064Z" fill="url(#paint58_linear_2130_159)"/>
<path d="M203.741 1282.62C204.444 1280.52 255.245 1115.89 255.245 1115.89C255.245 1115.89 196.758 1277.96 196.055 1280.1C195.352 1282.2 196.524 1284.48 198.633 1285.18C200.742 1285.88 203.038 1284.71 203.741 1282.62Z" fill="url(#paint59_linear_2130_159)"/>
<path d="M-105.557 1061.29C-102.041 1058.53 165.054 838.531 165.054 838.531C165.054 838.531 -112.126 1045.88 -115.641 1048.69C-119.157 1051.44 -119.758 1056.5 -116.936 1060C-114.161 1063.49 -109.072 1064.09 -105.557 1061.29Z" fill="url(#paint60_linear_2130_159)"/>
<path d="M-1315.85 190.008C-1306.15 190.245 228.848 206.777 228.848 206.777C228.848 206.777 -1305.37 154.142 -1315.07 153.952C-1324.77 153.715 -1332.76 161.648 -1332.99 171.576C-1333.23 181.552 -1325.51 189.77 -1315.85 190.008Z" fill="url(#paint61_linear_2130_159)"/>
<path d="M-1082.69 112.707C-1077.63 113.164 -640.068 140.739 -640.068 140.739C-640.068 140.739 -1075.92 95.0095 -1080.99 94.5522C-1086.06 94.0949 -1090.52 97.7532 -1090.98 102.784C-1091.45 107.814 -1087.76 112.25 -1082.69 112.707Z" fill="url(#paint62_linear_2130_159)"/>
<path d="M-467.057 130.903C-462.018 131.565 -24.1276 175.959 -24.1276 175.959C-24.1276 175.959 -459.615 112.909 -464.699 112.201C-469.738 111.54 -474.36 115.176 -475.008 120.324C-475.655 125.472 -472.095 130.195 -467.057 130.856V130.903Z" fill="url(#paint63_linear_2130_159)"/>
<path d="M-1065.22 413.617C-1060.19 412.975 -626.869 343.253 -626.869 343.253C-626.869 343.253 -1062.59 394.869 -1067.62 395.51C-1072.64 396.152 -1076.19 400.736 -1075.55 405.733C-1074.9 410.729 -1070.29 414.259 -1065.27 413.617H-1065.22Z" fill="url(#paint64_linear_2130_159)"/>
<path d="M-718.257 -92.2502C-714.053 -90.7719 -384.892 17.4704 -384.892 17.4704C-384.892 17.4704 -708.647 -106.017 -712.851 -107.542C-717.056 -109.02 -721.676 -106.803 -723.201 -102.599C-724.68 -98.3945 -722.462 -93.7747 -718.257 -92.2502Z" fill="url(#paint65_linear_2130_159)"/>
<path d="M-841.986 82.0835C-837.544 82.6854 -492.682 120.928 -492.682 120.928C-492.682 120.928 -835.416 66.5732 -839.858 65.9713C-844.3 65.3694 -848.372 68.5178 -848.973 72.9625C-849.575 77.4072 -846.429 81.4816 -841.986 82.0835Z" fill="url(#paint66_linear_2130_159)"/>
<path d="M-972.515 283.804C-968.032 283.575 -622.469 257.405 -622.469 257.405C-622.469 257.405 -968.91 267.534 -973.393 267.763C-977.876 267.992 -981.296 271.796 -981.019 276.242C-980.787 280.688 -976.951 284.079 -972.468 283.804H-972.515Z" fill="url(#paint67_linear_2130_159)"/>
<path d="M-354.957 -43.6191C-350.671 -42.3172 -17.5283 50.4889 -17.5283 50.4889C-17.5283 50.4889 -346.062 -57.9862 -350.302 -59.2416C-354.542 -60.497 -359.059 -58.0793 -360.35 -53.7551C-361.64 -49.431 -359.197 -44.9209 -354.911 -43.6191H-354.957Z" fill="url(#paint68_linear_2130_159)"/>
<path d="M-1080.02 -45.5984C-1075.64 -44.7612 -378.293 76.9037 -378.293 76.9037C-378.293 76.9037 -1072.69 -60.853 -1077.07 -61.6437C-1081.45 -62.4343 -1085.7 -59.5507 -1086.48 -55.1324C-1087.31 -50.7142 -1084.41 -46.4355 -1080.02 -45.6449V-45.5984Z" fill="url(#paint69_linear_2130_159)"/>
<path d="M176.676 1668.9C177.789 1664.56 257.445 1327.2 257.445 1327.2C257.445 1327.2 162.025 1660.54 160.912 1664.84C159.799 1669.18 162.395 1673.57 166.754 1674.73C171.112 1675.88 175.517 1673.25 176.676 1668.9Z" fill="url(#paint70_linear_2130_159)"/>
<path d="M476.131 1155.49C476.417 1152.35 492.942 907.555 492.942 907.555C492.942 907.555 464.654 1151.33 464.368 1154.48C464.082 1157.62 466.511 1160.4 469.749 1160.68C472.988 1160.95 475.845 1158.59 476.131 1155.45V1155.49Z" fill="url(#paint71_linear_2130_159)"/>
<path d="M59.4643 1469.12C60.7699 1466.26 158.455 1241.36 158.455 1241.36C158.455 1241.36 50.2787 1461.5 48.9731 1464.41C47.6675 1467.27 48.9732 1470.69 51.8175 1471.98C54.6617 1473.28 58.1587 1471.98 59.4643 1469.17V1469.12Z" fill="url(#paint72_linear_2130_159)"/>
<path d="M2486.75 1341.48C2482.93 1339.17 2191.06 1153.31 2191.06 1153.31C2191.06 1153.31 2491.31 1325.23 2495.14 1327.55C2498.96 1329.86 2500.16 1334.86 2497.86 1338.71C2495.55 1342.55 2490.58 1343.75 2486.75 1341.44V1341.48Z" fill="url(#paint73_linear_2130_159)"/>
<path d="M688.604 1071.63C688.555 1066.54 703.305 826.344 703.305 826.344C703.305 826.344 708.351 1066.36 708.401 1071.45C708.45 1076.54 704.084 1080.7 698.626 1080.75C693.169 1080.8 688.704 1076.72 688.654 1071.63H688.604Z" fill="url(#paint74_linear_2130_159)"/>
<path d="M-662.6 280.774C-657.573 280.216 143.056 204.575 143.056 204.575C143.056 204.575 -655.635 298.662 -660.709 299.173C-665.736 299.731 -670.302 296.013 -670.81 290.949C-671.363 285.885 -667.673 281.285 -662.646 280.774H-662.6Z" fill="url(#paint75_linear_2130_159)"/>
</g>
<g filter="url(#filter4_f_2130_159)">
<path fill-rule="evenodd" clip-rule="evenodd" d="M2322.32 731.965C2005.88 1012.62 1486.82 1230 702.278 1230C-82.4775 1230 -598.228 1012.43 -909.634 730.69C-1211.73 457.366 -1311.03 134.312 -1312 -83.6116L-802.381 -84.5798C-801.65 79.9757 -722.963 330.641 -496.628 535.416C-279.599 731.772 83.5358 896.685 702.278 896.685C1321.23 896.685 1689.55 731.583 1912.16 534.141C2143.84 328.662 2228.07 77.4949 2232.46 -87L2742 -81.1915C2736.19 136.793 2629.7 459.345 2322.32 731.965Z" fill="#08060D"/>
</g>
</g>
<defs>
<filter id="filter0_f_2130_159" x="-968.387" y="-644.033" width="1901.05" height="2030.71" filterUnits="userSpaceOnUse" color-interpolation-filters="sRGB">
<feFlood flood-opacity="0" result="BackgroundImageFix"/>
<feBlend mode="normal" in="SourceGraphic" in2="BackgroundImageFix" result="shape"/>
<feGaussianBlur stdDeviation="370" result="effect1_foregroundBlur_2130_159"/>
</filter>
<filter id="filter1_f_2130_159" x="231.395" y="216.41" width="2447.39" height="1507.98" filterUnits="userSpaceOnUse" color-interpolation-filters="sRGB">
<feFlood flood-opacity="0" result="BackgroundImageFix"/>
<feBlend mode="normal" in="SourceGraphic" in2="BackgroundImageFix" result="shape"/>
<feGaussianBlur stdDeviation="350" result="effect1_foregroundBlur_2130_159"/>
</filter>
<filter id="filter2_f_2130_159" x="-786.822" y="-990.775" width="2123.56" height="1911.63" filterUnits="userSpaceOnUse" color-interpolation-filters="sRGB">
<feFlood flood-opacity="0" result="BackgroundImageFix"/>
<feBlend mode="normal" in="SourceGraphic" in2="BackgroundImageFix" result="shape"/>
<feGaussianBlur stdDeviation="350" result="effect1_foregroundBlur_2130_159"/>
</filter>
<filter id="filter3_f_2130_159" x="102.305" y="-1287.55" width="1970.75" height="2051.4" filterUnits="userSpaceOnUse" color-interpolation-filters="sRGB">
<feFlood flood-opacity="0" result="BackgroundImageFix"/>
<feBlend mode="normal" in="SourceGraphic" in2="BackgroundImageFix" result="shape"/>
<feGaussianBlur stdDeviation="400" result="effect1_foregroundBlur_2130_159"/>
</filter>
<filter id="filter4_f_2130_159" x="-1732" y="-507" width="4894" height="2157" filterUnits="userSpaceOnUse" color-interpolation-filters="sRGB">
<feFlood flood-opacity="0" result="BackgroundImageFix"/>
<feBlend mode="normal" in="SourceGraphic" in2="BackgroundImageFix" result="shape"/>
<feGaussianBlur stdDeviation="210" result="effect1_foregroundBlur_2130_159"/>
</filter>
<linearGradient id="paint0_linear_2130_159" x1="719.604" y1="188.568" x2="647.786" y2="1205.14" gradientUnits="userSpaceOnUse">
<stop stop-color="#D188FF" stop-opacity="0"/>
<stop offset="1" stop-color="#831FD8"/>
</linearGradient>
<linearGradient id="paint1_linear_2130_159" x1="719.604" y1="188.568" x2="647.786" y2="1205.14" gradientUnits="userSpaceOnUse">
<stop stop-color="#D188FF" stop-opacity="0"/>
<stop offset="1" stop-color="#831FD8"/>
</linearGradient>
<linearGradient id="paint2_linear_2130_159" x1="719.604" y1="188.568" x2="647.786" y2="1205.14" gradientUnits="userSpaceOnUse">
<stop stop-color="#D188FF" stop-opacity="0"/>
<stop offset="1" stop-color="#831FD8"/>
</linearGradient>
<linearGradient id="paint3_linear_2130_159" x1="719.604" y1="188.568" x2="647.786" y2="1205.14" gradientUnits="userSpaceOnUse">
<stop stop-color="#D188FF" stop-opacity="0"/>
<stop offset="1" stop-color="#831FD8"/>
</linearGradient>
<linearGradient id="paint4_linear_2130_159" x1="719.604" y1="188.568" x2="647.786" y2="1205.14" gradientUnits="userSpaceOnUse">
<stop stop-color="#D188FF" stop-opacity="0"/>
<stop offset="1" stop-color="#831FD8"/>
</linearGradient>
<linearGradient id="paint5_linear_2130_159" x1="719.604" y1="188.568" x2="647.786" y2="1205.14" gradientUnits="userSpaceOnUse">
<stop stop-color="#D188FF" stop-opacity="0"/>
<stop offset="1" stop-color="#831FD8"/>
</linearGradient>
<linearGradient id="paint6_linear_2130_159" x1="719.604" y1="188.568" x2="647.786" y2="1205.14" gradientUnits="userSpaceOnUse">
<stop stop-color="#D188FF" stop-opacity="0"/>
<stop offset="1" stop-color="#831FD8"/>
</linearGradient>
<linearGradient id="paint7_linear_2130_159" x1="719.604" y1="188.568" x2="647.786" y2="1205.14" gradientUnits="userSpaceOnUse">
<stop stop-color="#D188FF" stop-opacity="0"/>
<stop offset="1" stop-color="#831FD8"/>
</linearGradient>
<linearGradient id="paint8_linear_2130_159" x1="158.718" y1="-59.7211" x2="-333.166" y2="5.42932" gradientUnits="userSpaceOnUse">
<stop stop-color="#D188FF"/>
<stop offset="1" stop-color="#831FD8"/>
</linearGradient>
<linearGradient id="paint9_linear_2130_159" x1="1271.95" y1="-605.606" x2="764.87" y2="-517.721" gradientUnits="userSpaceOnUse">
<stop stop-color="#D188FF"/>
<stop offset="1" stop-color="#831FD8"/>
</linearGradient>
<linearGradient id="paint10_linear_2130_159" x1="695.759" y1="10.3255" x2="879.253" y2="1228.93" gradientUnits="userSpaceOnUse">
<stop stop-color="#191125"/>
<stop offset="0.24831" stop-color="#231237"/>
<stop offset="1" stop-color="#BD70FF"/>
</linearGradient>
<linearGradient id="paint11_linear_2130_159" x1="695.759" y1="10.3255" x2="879.253" y2="1228.93" gradientUnits="userSpaceOnUse">
<stop stop-color="#191125"/>
<stop offset="0.24831" stop-color="#231237"/>
<stop offset="1" stop-color="#BD70FF"/>
</linearGradient>
<linearGradient id="paint12_linear_2130_159" x1="695.759" y1="10.3255" x2="879.253" y2="1228.93" gradientUnits="userSpaceOnUse">
<stop stop-color="#191125"/>
<stop offset="0.24831" stop-color="#231237"/>
<stop offset="1" stop-color="#BD70FF"/>
</linearGradient>
<linearGradient id="paint13_linear_2130_159" x1="695.759" y1="10.3255" x2="879.253" y2="1228.93" gradientUnits="userSpaceOnUse">
<stop stop-color="#191125"/>
<stop offset="0.24831" stop-color="#231237"/>
<stop offset="1" stop-color="#BD70FF"/>
</linearGradient>
<linearGradient id="paint14_linear_2130_159" x1="695.759" y1="10.3255" x2="879.253" y2="1228.93" gradientUnits="userSpaceOnUse">
<stop stop-color="#191125"/>
<stop offset="0.24831" stop-color="#231237"/>
<stop offset="1" stop-color="#BD70FF"/>
</linearGradient>
<linearGradient id="paint15_linear_2130_159" x1="695.759" y1="10.3255" x2="879.253" y2="1228.93" gradientUnits="userSpaceOnUse">
<stop stop-color="#191125"/>
<stop offset="0.24831" stop-color="#231237"/>
<stop offset="1" stop-color="#BD70FF"/>
</linearGradient>
<linearGradient id="paint16_linear_2130_159" x1="695.759" y1="10.3255" x2="879.253" y2="1228.93" gradientUnits="userSpaceOnUse">
<stop stop-color="#191125"/>
<stop offset="0.24831" stop-color="#231237"/>
<stop offset="1" stop-color="#BD70FF"/>
</linearGradient>
<linearGradient id="paint17_linear_2130_159" x1="695.759" y1="10.3255" x2="879.253" y2="1228.93" gradientUnits="userSpaceOnUse">
<stop stop-color="#191125"/>
<stop offset="0.24831" stop-color="#231237"/>
<stop offset="1" stop-color="#BD70FF"/>
</linearGradient>
<linearGradient id="paint18_linear_2130_159" x1="695.759" y1="10.3255" x2="879.253" y2="1228.93" gradientUnits="userSpaceOnUse">
<stop stop-color="#191125"/>
<stop offset="0.24831" stop-color="#231237"/>
<stop offset="1" stop-color="#BD70FF"/>
</linearGradient>
<linearGradient id="paint19_linear_2130_159" x1="695.759" y1="10.3255" x2="879.253" y2="1228.93" gradientUnits="userSpaceOnUse">
<stop stop-color="#191125"/>
<stop offset="0.24831" stop-color="#231237"/>
<stop offset="1" stop-color="#BD70FF"/>
</linearGradient>
<linearGradient id="paint20_linear_2130_159" x1="695.759" y1="10.3255" x2="879.253" y2="1228.93" gradientUnits="userSpaceOnUse">
<stop stop-color="#191125"/>
<stop offset="0.24831" stop-color="#231237"/>
<stop offset="1" stop-color="#BD70FF"/>
</linearGradient>
<linearGradient id="paint21_linear_2130_159" x1="695.759" y1="10.3255" x2="879.253" y2="1228.93" gradientUnits="userSpaceOnUse">
<stop stop-color="#191125"/>
<stop offset="0.24831" stop-color="#231237"/>
<stop offset="1" stop-color="#BD70FF"/>
</linearGradient>
<linearGradient id="paint22_linear_2130_159" x1="695.759" y1="10.3255" x2="879.253" y2="1228.93" gradientUnits="userSpaceOnUse">
<stop stop-color="#191125"/>
<stop offset="0.24831" stop-color="#231237"/>
<stop offset="1" stop-color="#BD70FF"/>
</linearGradient>
<linearGradient id="paint23_linear_2130_159" x1="695.759" y1="10.3255" x2="879.253" y2="1228.93" gradientUnits="userSpaceOnUse">
<stop stop-color="#191125"/>
<stop offset="0.24831" stop-color="#231237"/>
<stop offset="1" stop-color="#BD70FF"/>
</linearGradient>
<linearGradient id="paint24_linear_2130_159" x1="695.759" y1="10.3255" x2="879.253" y2="1228.93" gradientUnits="userSpaceOnUse">
<stop stop-color="#191125"/>
<stop offset="0.24831" stop-color="#231237"/>
<stop offset="1" stop-color="#BD70FF"/>
</linearGradient>
<linearGradient id="paint25_linear_2130_159" x1="695.759" y1="10.3255" x2="879.253" y2="1228.93" gradientUnits="userSpaceOnUse">
<stop stop-color="#191125"/>
<stop offset="0.24831" stop-color="#231237"/>
<stop offset="1" stop-color="#BD70FF"/>
</linearGradient>
<linearGradient id="paint26_linear_2130_159" x1="695.759" y1="10.3255" x2="879.253" y2="1228.93" gradientUnits="userSpaceOnUse">
<stop stop-color="#191125"/>
<stop offset="0.24831" stop-color="#231237"/>
<stop offset="1" stop-color="#BD70FF"/>
</linearGradient>
<linearGradient id="paint27_linear_2130_159" x1="695.759" y1="10.3255" x2="879.253" y2="1228.93" gradientUnits="userSpaceOnUse">
<stop stop-color="#191125"/>
<stop offset="0.24831" stop-color="#231237"/>
<stop offset="1" stop-color="#BD70FF"/>
</linearGradient>
<linearGradient id="paint28_linear_2130_159" x1="695.759" y1="10.3255" x2="879.253" y2="1228.93" gradientUnits="userSpaceOnUse">
<stop stop-color="#191125"/>
<stop offset="0.24831" stop-color="#231237"/>
<stop offset="1" stop-color="#BD70FF"/>
</linearGradient>
<linearGradient id="paint29_linear_2130_159" x1="695.759" y1="10.3255" x2="879.253" y2="1228.93" gradientUnits="userSpaceOnUse">
<stop stop-color="#191125"/>
<stop offset="0.24831" stop-color="#231237"/>
<stop offset="1" stop-color="#BD70FF"/>
</linearGradient>
<linearGradient id="paint30_linear_2130_159" x1="695.759" y1="10.3255" x2="879.253" y2="1228.93" gradientUnits="userSpaceOnUse">
<stop stop-color="#191125"/>
<stop offset="0.24831" stop-color="#231237"/>
<stop offset="1" stop-color="#BD70FF"/>
</linearGradient>
<linearGradient id="paint31_linear_2130_159" x1="695.759" y1="10.3255" x2="879.253" y2="1228.93" gradientUnits="userSpaceOnUse">
<stop stop-color="#191125"/>
<stop offset="0.24831" stop-color="#231237"/>
<stop offset="1" stop-color="#BD70FF"/>
</linearGradient>
<linearGradient id="paint32_linear_2130_159" x1="695.759" y1="10.3255" x2="879.253" y2="1228.93" gradientUnits="userSpaceOnUse">
<stop stop-color="#191125"/>
<stop offset="0.24831" stop-color="#231237"/>
<stop offset="1" stop-color="#BD70FF"/>
</linearGradient>
<linearGradient id="paint33_linear_2130_159" x1="695.759" y1="10.3255" x2="879.253" y2="1228.93" gradientUnits="userSpaceOnUse">
<stop stop-color="#191125"/>
<stop offset="0.24831" stop-color="#231237"/>
<stop offset="1" stop-color="#BD70FF"/>
</linearGradient>
<linearGradient id="paint34_linear_2130_159" x1="695.759" y1="10.3255" x2="879.253" y2="1228.93" gradientUnits="userSpaceOnUse">
<stop stop-color="#191125"/>
<stop offset="0.24831" stop-color="#231237"/>
<stop offset="1" stop-color="#BD70FF"/>
</linearGradient>
<linearGradient id="paint35_linear_2130_159" x1="695.759" y1="10.3255" x2="879.253" y2="1228.93" gradientUnits="userSpaceOnUse">
<stop stop-color="#191125"/>
<stop offset="0.24831" stop-color="#231237"/>
<stop offset="1" stop-color="#BD70FF"/>
</linearGradient>
<linearGradient id="paint36_linear_2130_159" x1="695.759" y1="10.3255" x2="879.253" y2="1228.93" gradientUnits="userSpaceOnUse">
<stop stop-color="#191125"/>
<stop offset="0.24831" stop-color="#231237"/>
<stop offset="1" stop-color="#BD70FF"/>
</linearGradient>
<linearGradient id="paint37_linear_2130_159" x1="695.759" y1="10.3255" x2="879.253" y2="1228.93" gradientUnits="userSpaceOnUse">
<stop stop-color="#191125"/>
<stop offset="0.24831" stop-color="#231237"/>
<stop offset="1" stop-color="#BD70FF"/>
</linearGradient>
<linearGradient id="paint38_linear_2130_159" x1="695.759" y1="10.3255" x2="879.253" y2="1228.93" gradientUnits="userSpaceOnUse">
<stop stop-color="#191125"/>
<stop offset="0.24831" stop-color="#231237"/>
<stop offset="1" stop-color="#BD70FF"/>
</linearGradient>
<linearGradient id="paint39_linear_2130_159" x1="695.759" y1="10.3255" x2="879.253" y2="1228.93" gradientUnits="userSpaceOnUse">
<stop stop-color="#191125"/>
<stop offset="0.24831" stop-color="#231237"/>
<stop offset="1" stop-color="#BD70FF"/>
</linearGradient>
<linearGradient id="paint40_linear_2130_159" x1="695.759" y1="10.3255" x2="879.253" y2="1228.93" gradientUnits="userSpaceOnUse">
<stop stop-color="#191125"/>
<stop offset="0.24831" stop-color="#231237"/>
<stop offset="1" stop-color="#BD70FF"/>
</linearGradient>
<linearGradient id="paint41_linear_2130_159" x1="695.759" y1="10.3255" x2="879.253" y2="1228.93" gradientUnits="userSpaceOnUse">
<stop stop-color="#191125"/>
<stop offset="0.24831" stop-color="#231237"/>
<stop offset="1" stop-color="#BD70FF"/>
</linearGradient>
<linearGradient id="paint42_linear_2130_159" x1="695.759" y1="10.3255" x2="879.253" y2="1228.93" gradientUnits="userSpaceOnUse">
<stop stop-color="#191125"/>
<stop offset="0.24831" stop-color="#231237"/>
<stop offset="1" stop-color="#BD70FF"/>
</linearGradient>
<linearGradient id="paint43_linear_2130_159" x1="695.759" y1="10.3255" x2="879.253" y2="1228.93" gradientUnits="userSpaceOnUse">
<stop stop-color="#191125"/>
<stop offset="0.24831" stop-color="#231237"/>
<stop offset="1" stop-color="#BD70FF"/>
</linearGradient>
<linearGradient id="paint44_linear_2130_159" x1="695.759" y1="10.3255" x2="879.253" y2="1228.93" gradientUnits="userSpaceOnUse">
<stop stop-color="#191125"/>
<stop offset="0.24831" stop-color="#231237"/>
<stop offset="1" stop-color="#BD70FF"/>
</linearGradient>
<linearGradient id="paint45_linear_2130_159" x1="695.759" y1="10.3255" x2="879.253" y2="1228.93" gradientUnits="userSpaceOnUse">
<stop stop-color="#191125"/>
<stop offset="0.24831" stop-color="#231237"/>
<stop offset="1" stop-color="#BD70FF"/>
</linearGradient>
<linearGradient id="paint46_linear_2130_159" x1="695.759" y1="10.3255" x2="879.253" y2="1228.93" gradientUnits="userSpaceOnUse">
<stop stop-color="#191125"/>
<stop offset="0.24831" stop-color="#231237"/>
<stop offset="1" stop-color="#BD70FF"/>
</linearGradient>
<linearGradient id="paint47_linear_2130_159" x1="695.759" y1="10.3255" x2="879.253" y2="1228.93" gradientUnits="userSpaceOnUse">
<stop stop-color="#191125"/>
<stop offset="0.24831" stop-color="#231237"/>
<stop offset="1" stop-color="#BD70FF"/>
</linearGradient>
<linearGradient id="paint48_linear_2130_159" x1="695.759" y1="10.3255" x2="879.253" y2="1228.93" gradientUnits="userSpaceOnUse">
<stop stop-color="#191125"/>
<stop offset="0.24831" stop-color="#231237"/>
<stop offset="1" stop-color="#BD70FF"/>
</linearGradient>
<linearGradient id="paint49_linear_2130_159" x1="695.759" y1="10.3255" x2="879.253" y2="1228.93" gradientUnits="userSpaceOnUse">
<stop stop-color="#191125"/>
<stop offset="0.24831" stop-color="#231237"/>
<stop offset="1" stop-color="#BD70FF"/>
</linearGradient>
<linearGradient id="paint50_linear_2130_159" x1="695.759" y1="10.3255" x2="879.253" y2="1228.93" gradientUnits="userSpaceOnUse">
<stop stop-color="#191125"/>
<stop offset="0.24831" stop-color="#231237"/>
<stop offset="1" stop-color="#BD70FF"/>
</linearGradient>
<linearGradient id="paint51_linear_2130_159" x1="695.759" y1="10.3255" x2="879.253" y2="1228.93" gradientUnits="userSpaceOnUse">
<stop stop-color="#191125"/>
<stop offset="0.24831" stop-color="#231237"/>
<stop offset="1" stop-color="#BD70FF"/>
</linearGradient>
<linearGradient id="paint52_linear_2130_159" x1="695.759" y1="10.3255" x2="879.253" y2="1228.93" gradientUnits="userSpaceOnUse">
<stop stop-color="#191125"/>
<stop offset="0.24831" stop-color="#231237"/>
<stop offset="1" stop-color="#BD70FF"/>
</linearGradient>
<linearGradient id="paint53_linear_2130_159" x1="695.759" y1="10.3255" x2="879.253" y2="1228.93" gradientUnits="userSpaceOnUse">
<stop stop-color="#191125"/>
<stop offset="0.24831" stop-color="#231237"/>
<stop offset="1" stop-color="#BD70FF"/>
</linearGradient>
<linearGradient id="paint54_linear_2130_159" x1="695.759" y1="10.3255" x2="879.253" y2="1228.93" gradientUnits="userSpaceOnUse">
<stop stop-color="#191125"/>
<stop offset="0.24831" stop-color="#231237"/>
<stop offset="1" stop-color="#BD70FF"/>
</linearGradient>
<linearGradient id="paint55_linear_2130_159" x1="695.759" y1="10.3255" x2="879.253" y2="1228.93" gradientUnits="userSpaceOnUse">
<stop stop-color="#191125"/>
<stop offset="0.24831" stop-color="#231237"/>
<stop offset="1" stop-color="#BD70FF"/>
</linearGradient>
<linearGradient id="paint56_linear_2130_159" x1="695.759" y1="10.3255" x2="879.253" y2="1228.93" gradientUnits="userSpaceOnUse">
<stop stop-color="#191125"/>
<stop offset="0.24831" stop-color="#231237"/>
<stop offset="1" stop-color="#BD70FF"/>
</linearGradient>
<linearGradient id="paint57_linear_2130_159" x1="695.759" y1="10.3255" x2="879.253" y2="1228.93" gradientUnits="userSpaceOnUse">
<stop stop-color="#191125"/>
<stop offset="0.24831" stop-color="#231237"/>
<stop offset="1" stop-color="#BD70FF"/>
</linearGradient>
<linearGradient id="paint58_linear_2130_159" x1="695.759" y1="10.3255" x2="879.253" y2="1228.93" gradientUnits="userSpaceOnUse">
<stop stop-color="#191125"/>
<stop offset="0.24831" stop-color="#231237"/>
<stop offset="1" stop-color="#BD70FF"/>
</linearGradient>
<linearGradient id="paint59_linear_2130_159" x1="695.759" y1="10.3255" x2="879.253" y2="1228.93" gradientUnits="userSpaceOnUse">
<stop stop-color="#191125"/>
<stop offset="0.24831" stop-color="#231237"/>
<stop offset="1" stop-color="#BD70FF"/>
</linearGradient>
<linearGradient id="paint60_linear_2130_159" x1="695.759" y1="10.3255" x2="879.253" y2="1228.93" gradientUnits="userSpaceOnUse">
<stop stop-color="#191125"/>
<stop offset="0.24831" stop-color="#231237"/>
<stop offset="1" stop-color="#BD70FF"/>
</linearGradient>
<linearGradient id="paint61_linear_2130_159" x1="695.759" y1="10.3255" x2="879.253" y2="1228.93" gradientUnits="userSpaceOnUse">
<stop stop-color="#191125"/>
<stop offset="0.24831" stop-color="#231237"/>
<stop offset="1" stop-color="#BD70FF"/>
</linearGradient>
<linearGradient id="paint62_linear_2130_159" x1="695.759" y1="10.3255" x2="879.253" y2="1228.93" gradientUnits="userSpaceOnUse">
<stop stop-color="#191125"/>
<stop offset="0.24831" stop-color="#231237"/>
<stop offset="1" stop-color="#BD70FF"/>
</linearGradient>
<linearGradient id="paint63_linear_2130_159" x1="695.759" y1="10.3255" x2="879.253" y2="1228.93" gradientUnits="userSpaceOnUse">
<stop stop-color="#191125"/>
<stop offset="0.24831" stop-color="#231237"/>
<stop offset="1" stop-color="#BD70FF"/>
</linearGradient>
<linearGradient id="paint64_linear_2130_159" x1="695.759" y1="10.3255" x2="879.253" y2="1228.93" gradientUnits="userSpaceOnUse">
<stop stop-color="#191125"/>
<stop offset="0.24831" stop-color="#231237"/>
<stop offset="1" stop-color="#BD70FF"/>
</linearGradient>
<linearGradient id="paint65_linear_2130_159" x1="695.759" y1="10.3255" x2="879.253" y2="1228.93" gradientUnits="userSpaceOnUse">
<stop stop-color="#191125"/>
<stop offset="0.24831" stop-color="#231237"/>
<stop offset="1" stop-color="#BD70FF"/>
</linearGradient>
<linearGradient id="paint66_linear_2130_159" x1="695.759" y1="10.3255" x2="879.253" y2="1228.93" gradientUnits="userSpaceOnUse">
<stop stop-color="#191125"/>
<stop offset="0.24831" stop-color="#231237"/>
<stop offset="1" stop-color="#BD70FF"/>
</linearGradient>
<linearGradient id="paint67_linear_2130_159" x1="695.759" y1="10.3255" x2="879.253" y2="1228.93" gradientUnits="userSpaceOnUse">
<stop stop-color="#191125"/>
<stop offset="0.24831" stop-color="#231237"/>
<stop offset="1" stop-color="#BD70FF"/>
</linearGradient>
<linearGradient id="paint68_linear_2130_159" x1="695.759" y1="10.3255" x2="879.253" y2="1228.93" gradientUnits="userSpaceOnUse">
<stop stop-color="#191125"/>
<stop offset="0.24831" stop-color="#231237"/>
<stop offset="1" stop-color="#BD70FF"/>
</linearGradient>
<linearGradient id="paint69_linear_2130_159" x1="695.759" y1="10.3255" x2="879.253" y2="1228.93" gradientUnits="userSpaceOnUse">
<stop stop-color="#191125"/>
<stop offset="0.24831" stop-color="#231237"/>
<stop offset="1" stop-color="#BD70FF"/>
</linearGradient>
<linearGradient id="paint70_linear_2130_159" x1="695.759" y1="10.3255" x2="879.253" y2="1228.93" gradientUnits="userSpaceOnUse">
<stop stop-color="#191125"/>
<stop offset="0.24831" stop-color="#231237"/>
<stop offset="1" stop-color="#BD70FF"/>
</linearGradient>
<linearGradient id="paint71_linear_2130_159" x1="695.759" y1="10.3255" x2="879.253" y2="1228.93" gradientUnits="userSpaceOnUse">
<stop stop-color="#191125"/>
<stop offset="0.24831" stop-color="#231237"/>
<stop offset="1" stop-color="#BD70FF"/>
</linearGradient>
<linearGradient id="paint72_linear_2130_159" x1="695.759" y1="10.3255" x2="879.253" y2="1228.93" gradientUnits="userSpaceOnUse">
<stop stop-color="#191125"/>
<stop offset="0.24831" stop-color="#231237"/>
<stop offset="1" stop-color="#BD70FF"/>
</linearGradient>
<linearGradient id="paint73_linear_2130_159" x1="695.759" y1="10.3255" x2="879.253" y2="1228.93" gradientUnits="userSpaceOnUse">
<stop stop-color="#191125"/>
<stop offset="0.24831" stop-color="#231237"/>
<stop offset="1" stop-color="#BD70FF"/>
</linearGradient>
<linearGradient id="paint74_linear_2130_159" x1="695.759" y1="10.3255" x2="879.253" y2="1228.93" gradientUnits="userSpaceOnUse">
<stop stop-color="#191125"/>
<stop offset="0.24831" stop-color="#231237"/>
<stop offset="1" stop-color="#BD70FF"/>
</linearGradient>
<linearGradient id="paint75_linear_2130_159" x1="695.759" y1="10.3255" x2="879.253" y2="1228.93" gradientUnits="userSpaceOnUse">
<stop stop-color="#191125"/>
<stop offset="0.24831" stop-color="#231237"/>
<stop offset="1" stop-color="#BD70FF"/>
</linearGradient>
<clipPath id="clip0_2130_159">
<rect width="1440" height="1080" fill="white"/>
</clipPath>
</defs>
</svg>
