<svg width="155" height="155" viewBox="0 0 155 155" fill="none" xmlns="http://www.w3.org/2000/svg">
<g clip-path="url(#clip0_7_23)">
<circle cx="77.5" cy="77.5" r="77.5" fill="#070A1C"/>
<path d="M76.9894 20L76.2028 22.6663L76.2028 100.029L76.9895 100.812L112.978 79.5854L76.9894 20Z" fill="#6B6B6B"/>
<path d="M76.9894 20L41 79.5854L76.9895 100.812L76.9894 63.2625L76.9894 20Z" fill="#A2A2A2"/>
<path d="M76.9895 107.611L76.5461 108.151L76.5461 135.709L76.9895 137L113 86.3954L76.9895 107.611Z" fill="#4F4E4E"/>
<path d="M76.9895 137L76.9895 107.611L41 86.3954L76.9895 137Z" fill="#A2A2A2"/>
<path d="M76.9895 100.812L112.978 79.5854L76.9894 63.2625L76.9895 100.812Z" fill="#797979"/>
<path d="M41 79.5854L76.9895 100.812L76.9894 63.2625L41 79.5854Z" fill="#D4D4D4"/>
<g style="mix-blend-mode:overlay">
<path d="M76.9894 20L76.2028 22.6663L76.2028 100.029L76.9894 100.812L112.978 79.5854L76.9894 20Z" fill="#ACE730"/>
<path d="M76.9894 20L41 79.5854L76.9894 100.812L76.9894 63.2625L76.9894 20Z" fill="#ACE730"/>
<path d="M76.9894 107.611L76.5461 108.151L76.5461 135.709L76.9894 137L113 86.3954L76.9894 107.611Z" fill="#ACE730"/>
<path d="M76.9894 137L76.9894 107.611L41 86.3954L76.9894 137Z" fill="#ACE730"/>
<path d="M76.9894 100.812L112.978 79.5854L76.9894 63.2625L76.9894 100.812Z" fill="#ACE730"/>
<path d="M41 79.5854L76.9894 100.812L76.9894 63.2625L41 79.5854Z" fill="#ACE730"/>
</g>
</g>
<defs>
<clipPath id="clip0_7_23">
<rect width="155" height="155" fill="white"/>
</clipPath>
</defs>
</svg>
